<?xml version="1.0" encoding="UTF-8" standalone="no"?>
<!-- Created with Inkscape (http://www.inkscape.org/) -->

<svg
   xmlns:dc="http://purl.org/dc/elements/1.1/"
   xmlns:cc="http://creativecommons.org/ns#"
   xmlns:rdf="http://www.w3.org/1999/02/22-rdf-syntax-ns#"
   xmlns:svg="http://www.w3.org/2000/svg"
   xmlns="http://www.w3.org/2000/svg"
   xmlns:sodipodi="http://sodipodi.sourceforge.net/DTD/sodipodi-0.dtd"
   xmlns:inkscape="http://www.inkscape.org/namespaces/inkscape"
   width="252.78497mm"
   height="196.61055mm"
   viewBox="0 0 252.78497 196.61055"
   version="1.1"
   id="svg4524"
   inkscape:version="0.92.0 r15299"
   sodipodi:docname="logoBare.svg">
  <defs
     id="defs4518" />
  <sodipodi:namedview
     id="base"
     pagecolor="#ffffff"
     bordercolor="#666666"
     borderopacity="1.0"
     inkscape:pageopacity="0.0"
     inkscape:pageshadow="2"
     inkscape:zoom="0.12374369"
     inkscape:cx="302.0357"
     inkscape:cy="2327.4777"
     inkscape:document-units="mm"
     inkscape:current-layer="layer1"
     showgrid="false"
     fit-margin-top="0"
     fit-margin-left="0"
     fit-margin-right="0"
     fit-margin-bottom="0"
     inkscape:window-width="1920"
     inkscape:window-height="1001"
     inkscape:window-x="-9"
     inkscape:window-y="-9"
     inkscape:window-maximized="1" />
  <metadata
     id="metadata4521">
    <rdf:RDF>
      <cc:Work
         rdf:about="">
        <dc:format>image/svg+xml</dc:format>
        <dc:type
           rdf:resource="http://purl.org/dc/dcmitype/StillImage" />
        <dc:title></dc:title>
      </cc:Work>
    </rdf:RDF>
  </metadata>
  <g
     inkscape:label="Layer 1"
     inkscape:groupmode="layer"
     id="layer1"
     transform="translate(93.851995,109.08802)">
    <g
       id="g5104"
       transform="translate(24.870845,2.1386718e-6)">
      <g
         id="g5107">
        <path
           d="M 105.9749,-109.08802 H -118.72284 V 31.348075 c 0,31.03638 25.138046,56.17445 56.174425,56.17445 h 84.261653 c 31.036362,0 56.174445,-25.13807 56.174445,-56.17445 V -10.782749 H 105.9749 c 15.58841,0 28.08723,-12.498798 28.08723,-28.087224 v -42.130822 c 0,-15.58842 -12.49882,-28.087225 -28.08723,-28.087225 z m 0,70.218047 H 77.887683 V -81.000795 H 105.9749 Z"
           id="path4487"
           style="fill:#ffffff;stroke-width:14.04360867"
           inkscape:connector-curvature="0"
           sodipodi:nodetypes="scsssscssssccccc" />
      </g>
    </g>
    <g
       id="g5119"
       transform="matrix(0.26458333,0,0,0.26458333,-75.689724,-73.511172)" />
    <g
       id="g5121"
       transform="matrix(0.26458333,0,0,0.26458333,-75.689724,-73.511172)" />
    <g
       id="g5123"
       transform="matrix(0.26458333,0,0,0.26458333,-75.689724,-73.511172)" />
    <g
       id="g5125"
       transform="matrix(0.26458333,0,0,0.26458333,-75.689724,-73.511172)" />
    <g
       id="g5127"
       transform="matrix(0.26458333,0,0,0.26458333,-75.689724,-73.511172)" />
    <g
       id="g5129"
       transform="matrix(0.26458333,0,0,0.26458333,-75.689724,-73.511172)" />
    <g
       id="g5131"
       transform="matrix(0.26458333,0,0,0.26458333,-75.689724,-73.511172)" />
    <g
       id="g5133"
       transform="matrix(0.26458333,0,0,0.26458333,-75.689724,-73.511172)" />
    <g
       id="g5135"
       transform="matrix(0.26458333,0,0,0.26458333,-75.689724,-73.511172)" />
    <g
       id="g5137"
       transform="matrix(0.26458333,0,0,0.26458333,-75.689724,-73.511172)" />
    <g
       id="g5139"
       transform="matrix(0.26458333,0,0,0.26458333,-75.689724,-73.511172)" />
    <g
       id="g5141"
       transform="matrix(0.26458333,0,0,0.26458333,-75.689724,-73.511172)" />
    <g
       id="g5143"
       transform="matrix(0.26458333,0,0,0.26458333,-75.689724,-73.511172)" />
    <g
       id="g5145"
       transform="matrix(0.26458333,0,0,0.26458333,-75.689724,-73.511172)" />
    <g
       id="g5147"
       transform="matrix(0.26458333,0,0,0.26458333,-75.689724,-73.511172)" />
    <g
       id="g5779">
      <path
         sodipodi:nodetypes="ccccccccccccccc"
         inkscape:connector-curvature="0"
         style="fill:#4281a4;fill-opacity:0.96862745;stroke-width:0.26458332"
         d="M 51.987355,-55.100453 H 2.3779816 v 29.352875 c 10.5833324,0 0,0 10.5833324,0 V -44.517119 H 41.404022 V 22.95163 H -26.064727 V -44.517119 H -8.2053524 V -55.100453 H -36.648061 v 88.635416 h 88.635416 z"
         id="path5111" />
      <circle
         r="17.906622"
         cy="-10.782745"
         cx="7.6696472"
         id="path5775"
         style="opacity:1;fill:#4281a4;fill-opacity:0.96862745;fill-rule:nonzero;stroke:none;stroke-width:2.03501892;stroke-miterlimit:4;stroke-dasharray:none;stroke-opacity:1" />
    </g>
  </g>
</svg>
